<?xml version="1.0" encoding="UTF-8"?>
<svg width="257px" height="257px" viewBox="0 0 257 257" version="1.1" xmlns="http://www.w3.org/2000/svg" xmlns:xlink="http://www.w3.org/1999/xlink">
    <title>freshdesk/logo</title>
    <g id="freshdesk/logo" stroke="none" stroke-width="1" fill="none" fill-rule="evenodd">
        <rect fill="#25C16F" x="0" y="0" width="257" height="257"></rect>
        <path d="M129.249267,45 L193.43695,45 C205.472141,45 215,54.5278592 215,66.5630499 L215,130.750733 C215,177.888563 176.888563,216 129.750733,216 L129.249267,216 C82.111437,216 44,177.888563 44,130.750733 C44,83.6129032 82.111437,45.5014663 129.249267,45 Z" id="Path" fill="#FFFFFF" fill-rule="nonzero"></path>
        <path d="M128.994774,83 C107.497655,83 90,100.592593 90,122.206349 L90,148.846561 C90,155.883598 95.999196,161.915344 102.998258,161.915344 L113.996784,161.915344 L113.996784,131.253968 L98.998794,131.253968 L98.998794,122.708995 C99.498727,105.619048 113.996784,92.5502646 130.494573,93.5555556 C146.492429,94.0582011 158.990754,107.126984 159.490687,122.708995 L159.490687,131.253968 L144.492697,131.253968 L144.492697,161.915344 L154.491357,161.915344 L154.491357,162.417989 C154.491357,168.952381 148.992094,174.481481 142.492965,174.481481 L130.494573,174.481481 C129.494707,174.481481 128.494841,174.984127 128.494841,175.989418 C128.494841,176.994709 129.494707,178 130.494573,178 L142.492965,178 C150.991826,178 157.990888,170.962963 157.990888,162.417989 L157.990888,161.412698 C163.990084,159.904762 167.989548,154.878307 167.989548,148.846561 L167.989548,122.708995 C168.489481,100.592593 150.991826,83 128.994774,83 L128.994774,83 Z" id="Path" fill="#25C16F" fill-rule="nonzero"></path>
    </g>
</svg>