<?xml version="1.0" encoding="UTF-8"?>
<svg width="640px" height="360px" viewBox="0 0 640 360" version="1.1" xmlns="http://www.w3.org/2000/svg" xmlns:xlink="http://www.w3.org/1999/xlink">
    <title>freshdesk/picture</title>
    <g id="freshdesk/picture" stroke="none" stroke-width="1" fill="none" fill-rule="evenodd">
        <rect id="Rectangle-Copy" fill="#25C16F" x="0" y="0" width="640" height="360"></rect>
        <g id="logo-fdesk-black" transform="translate(138.000000, 140.000000)">
            <path d="M97.2,2 C87.2,2 83.6,9 83.6,15.6 L83.6,19.6 L81.6,19.6 C80,19.6 78.8,20.8 78.8,22.4 C78.8,24 80,25.2 81.6,25.2 L83.6,25.2 L83.6,52.8 C83.6,54.4 84.8,55.8 86.6,55.8 C88.4,55.8 89.6,54.6 89.6,52.8 L89.6,25 L96,25 C97.6,25 98.8,23.8 98.8,22.2 C98.8,20.6 97.6,19.4 96,19.4 L89.6,19.4 L89.6,15.4 C89.6,11.8 91,7.4 97.4,7.4 C99,7.4 100.2,6.2 100.2,4.8 C100,3.2 98.8,2 97.2,2 L97.2,2 Z M120,18.6 C116,18.4 112.4,20.2 110,23.4 L110,21.8 C110,20.2 108.8,18.8 107,18.8 C105.2,18.8 104,20.2 104,21.8 L104,52.6 C104,54.2 105.2,55.6 107,55.6 C108.8,55.6 110,54.4 110,52.6 L110,35.6 C110,28.4 113.8,24.2 120,24.2 C121.6,24.2 122.8,23 122.8,21.4 C122.8,19.8 121.4,18.6 120,18.6 Z M155.4,33.8 C155.4,30.4 154.4,27 152.6,24.2 C149.8,20.4 145.2,18.2 140.4,18.6 C130.2,18.6 124.4,25.4 124.4,37.2 C124.4,49.4 130.2,56 141.2,56 C145.6,56.2 150,54.6 153.4,51.6 C154,51.2 154.4,50.4 154.4,49.6 C154.4,48.2 153.2,47 151.8,47 C151.2,47 150.6,47.2 150.2,47.6 C147.8,49.6 144.6,50.8 141.4,50.8 C134.8,50.8 130.6,46.4 130.4,39.4 L152,39.4 C155.4,39 155.4,35.8 155.4,33.8 Z M140.6,23.8 C146.6,23.8 149.6,27.2 149.8,33.8 L130.4,33.8 C131,27.4 134.6,23.8 140.6,23.8 L140.6,23.8 Z M175,34.2 C170.6,32.6 167,31.4 167,28.2 C167,24.6 171,24.2 173.2,24.2 C176.2,24 179.2,25.2 181.2,27.2 C182.2,28.2 184,28.2 185,27.2 C185.6,26.6 185.8,26 185.8,25.2 C185.8,24.6 185.6,24 185.2,23.4 C182.2,20 177.8,18 173.4,18.4 C166,18.4 161.4,22.2 161.4,28 C161.4,35.2 167.8,37.4 173.4,39.4 C177.6,40.8 181.4,42 181.4,45.2 C181.4,49.4 176.6,50.2 173.8,50.2 C170.4,50.4 167,49 164.6,46.6 C164,46 163.4,45.8 162.6,45.6 C161.2,45.6 160,46.8 160,48.2 C160,48.8 160.2,49.4 160.6,50 C164,54 168.8,56 173.8,56 C182.2,56 187.2,52 187.2,45.6 C186.8,38.2 180.6,36.2 175,34.2 L175,34.2 Z M209.6,18.4 C206,18.2 202.4,19.8 200,22.6 L200,3 C200,1.4 198.8,0 197,0 C195.4,0 194.2,1.2 194.2,3 L194.2,52.6 C194.2,54.2 195.4,55.6 197,55.6 C198.6,55.6 200,54.4 200,52.6 L200,34 C200,27.2 203.2,23.8 209.6,23.8 C216,23.8 218.2,26.6 218.2,33.4 L218.2,52.6 C218.2,54.2 219.4,55.6 221.2,55.6 C222.8,55.6 224,54.4 224,52.6 L224,32.4 C224,23.2 219.2,18.4 209.6,18.4 Z M258.2,0 C256.6,0 255.4,1.2 255.4,2.8 L255.4,22.4 C252.8,19.8 249.2,18.4 245.6,18.4 C235.2,18.4 230,24.6 230,37 C230,49.4 235.6,55.8 246,55.8 C255.6,55.8 261.4,50 261.4,40.4 L261.4,3 C261.2,1.4 259.8,0 258.2,0 Z M245.8,50.6 C239,50.6 235.6,46.2 235.6,37.2 C235.6,28.2 239,23.8 245.8,23.8 C249.8,24 253.6,26.4 255.4,30 L255.4,40.4 C255.4,46.8 251.8,50.6 245.8,50.6 L245.8,50.6 Z M298.8,33.8 C298.8,30.4 297.8,27 296,24.2 C293.2,20.4 288.6,18.2 283.8,18.6 C273.6,18.6 267.8,25.4 267.8,37.2 C267.8,49.4 273.6,56 284.6,56 C289,56.2 293.4,54.6 296.8,51.6 C297.4,51.2 297.8,50.4 297.8,49.6 C297.8,48.2 296.6,47 295.2,47 C294.6,47 294,47.2 293.6,47.6 C291.2,49.6 288,50.8 284.8,50.8 C278.2,50.8 274,46.4 273.8,39.4 L295.4,39.4 C298.8,39 298.8,35.8 298.8,33.8 L298.8,33.8 Z M283.8,23.8 C289.8,23.8 292.8,27.2 293,33.8 L273.6,33.8 C274.2,27.4 277.8,23.8 283.8,23.8 Z M318.4,34.2 C314,32.6 310.4,31.4 310.4,28.2 C310.4,24.6 314.4,24.2 316.6,24.2 C319.6,24 322.6,25.2 324.6,27.2 C325.2,27.8 325.8,28 326.6,28 C328,28 329.2,26.8 329.2,25.4 C329.2,24.8 329,24.2 328.6,23.6 C325.6,20.2 321.2,18.2 316.8,18.6 C309.4,18.6 304.8,22.4 304.8,28.2 C304.8,35.4 311.2,37.6 316.8,39.6 C321,41 324.8,42.2 324.8,45.4 C324.8,49.6 320,50.4 317.2,50.4 C313.8,50.6 310.4,49.2 308,46.8 C307.4,46.2 306.8,46 306,45.8 C304.6,45.8 303.4,47 303.4,48.4 C303.4,49 303.6,49.6 304,50.2 C307.4,54 312.2,56 317.4,55.8 C325.8,55.8 330.8,51.8 330.8,45.4 C330.2,38.2 324,36.2 318.4,34.2 L318.4,34.2 Z M365.2,50.8 L352,33.8 L364,24.2 C364.8,23.6 365.2,22.8 365.2,21.8 C365.2,20.2 364,19 362.4,19 C361.6,19 361,19.2 360.4,19.8 L343.2,33.8 L343.2,3 C343.2,1.4 341.8,0.2 340.2,0.2 C338.6,0.2 337.4,1.4 337.4,3 L337.4,52.6 C337.4,54.2 338.8,55.4 340.4,55.4 C342,55.4 343.2,54.2 343.2,52.6 L343.2,40.6 L347.2,37.4 L360.4,54.2 C361,55 362,55.6 362.8,55.6 C364.4,55.6 365.6,54.4 365.6,52.8 C365.8,52 365.6,51.4 365.2,50.8 L365.2,50.8 Z" id="Shape" fill="#FFFFFF" fill-rule="nonzero"></path>
            <line x1="68.2" y1="20.4" x2="68.2" y2="46" id="Path"></line>
            <path d="M34,11.8 L59.6,11.8 C64.4,11.8 68.2,15.6 68.2,20.4 L68.2,46 C68.2,64.8 53,80 34.2,80 L34,80 C15.2,80 0,64.8 0,46 C0,27.2 15.2,12 34,11.8 Z" id="Path" fill="#FFFFFF" fill-rule="nonzero"></path>
            <path d="M34,27 C25.4,27 18.4,34 18.4,42.6 L18.4,53.2 C18.4,56 20.8,58.4 23.6,58.4 L28,58.4 L28,46.2 L22,46.2 L22,42.8 C22.2,36 28,30.8 34.6,31.2 C41,31.4 46,36.6 46.2,42.8 L46.2,46.2 L40.2,46.2 L40.2,58.4 L44.2,58.4 L44.2,58.6 C44.2,61.2 42,63.4 39.4,63.4 L34.6,63.4 C34.2,63.4 33.8,63.6 33.8,64 C33.8,64.4 34.2,64.8 34.6,64.8 L39.4,64.8 C42.8,64.8 45.6,62 45.6,58.6 L45.6,58.2 C48,57.6 49.6,55.6 49.6,53.2 L49.6,42.8 C49.8,34 42.8,27 34,27 L34,27 Z" id="Path" fill="#25C16F" fill-rule="nonzero"></path>
        </g>
    </g>
</svg>